HIERARCHY
ROOT Hips
{
	OFFSET 0.00 0.00 0.00
	CHANNELS 6 Xposition Yposition Zposition Xrotation Yrotation Zrotation
	JOINT Spine
	{
		OFFSET 0.00000 7.50895 0.00000
		CHANNELS 3 Xrotation Yrotation Zrotation
		JOINT Head
		{
			OFFSET 0.00000 13.86115 0.00000
			CHANNELS 3 Xrotation Yrotation Zrotation
			End Site
			{
				OFFSET 0.00000 4.52755 0.00000
			}
		}
		JOINT LeftShoulder
		{
			OFFSET 0.00000 8.20478 0.00000
			CHANNELS 3 Xrotation Yrotation Zrotation
			JOINT LeftArm
			{
				OFFSET 6.63596 0.00000 0.00000
				CHANNELS 3 Xrotation Yrotation Zrotation
				JOINT LeftForeArm
				{
					OFFSET 10.27422 0.00000 0.00000
					CHANNELS 3 Yrotation Zrotation Xrotation
					JOINT LeftHand
					{
						OFFSET 8.52215 0.00000 0.00000
						CHANNELS 3 Xrotation Yrotation Zrotation
						JOINT LeftHandThumb1
						{
							OFFSET 0.00000 0.00000 0.00000
							CHANNELS 3 Xrotation Zrotation Yrotation
							End Site
							{
								OFFSET 0.00000 0.00000 3.93700
							}
						}
						End Site
						{
							OFFSET 3.93700 0.00000 0.00000
						}
					}
				}
			}
		}
		JOINT RightShoulder
		{
			OFFSET 0.00000 8.20478 0.00000
			CHANNELS 3 Xrotation Yrotation Zrotation
			JOINT RightArm
			{
				OFFSET -6.63596 0.00000 0.00000
				CHANNELS 3 Xrotation Yrotation Zrotation
				JOINT RightForeArm
				{
					OFFSET -10.27422 0.00000 0.00000
					CHANNELS 3 Yrotation Zrotation Xrotation
					JOINT RightHand
					{
						OFFSET -8.52215 0.00000 0.00000
						CHANNELS 3 Xrotation Yrotation Zrotation
						JOINT RightHandThumb1
						{
							OFFSET 0.00000 0.00000 0.00000
							CHANNELS 3 Xrotation Zrotation Yrotation
							End Site
							{
								OFFSET 0.00000 0.00000 3.93700
							}
						}
						End Site
						{
							OFFSET -3.93700 0.00000 0.00000
						}
					}
				}
			}
		}
	}
	JOINT LeftUpLeg
	{
		OFFSET 3.00056 0.00000 0.00000
		CHANNELS 3 Xrotation Yrotation Zrotation
		JOINT LeftLeg
		{
			OFFSET 0.00000 -16.49085 0.00000
			CHANNELS 3 Xrotation Yrotation Zrotation
			JOINT LeftFoot
			{
				OFFSET 0.00000 -14.55658 0.00000
				CHANNELS 3 Xrotation Yrotation Zrotation
				JOINT LeftToeBase
				{
					OFFSET 0.00000 -1.25038 4.66650
					CHANNELS 3 Xrotation Yrotation Zrotation
					End Site
					{
						OFFSET 0.00000 0.00000 2.95275
					}
				}
			}
		}
	}
	JOINT RightUpLeg
	{
		OFFSET -3.00056 0.00000 0.00000
		CHANNELS 3 Xrotation Yrotation Zrotation
		JOINT RightLeg
		{
			OFFSET 0.00000 -16.49085 0.00000
			CHANNELS 3 Xrotation Yrotation Zrotation
			JOINT RightFoot
			{
				OFFSET 0.00000 -14.55658 0.00000
				CHANNELS 3 Xrotation Yrotation Zrotation
				JOINT RightToeBase
				{
					OFFSET 0.00000 -1.25038 4.66650
					CHANNELS 3 Xrotation Yrotation Zrotation
					End Site
					{
						OFFSET 0.00000 0.00000 2.95275
					}
				}
			}
		}
	}
}
MOTION
Frames: 22
Frame Time: 0.008333
 -4.8170 32.8481 -2.4490 11.5135 0.3281 -1.3839 -12.0690 4.3555 1.6238 -8.9734 -7.7780 9.1464 10.0965 21.7734 23.8533 -44.9652 16.0513 -27.8099 -48.7226 -0.0000 -11.7892 -2.1713 24.8875 5.1481 33.1476 -0.0000 26.2537 -21.3409 -11.2803 -37.6182 7.4870 -13.7504 35.9954 28.2874 -0.0000 33.4655 1.8806 -12.2268 8.8129 32.8623 0.0000 -24.3270 -5.7899 2.5809 1.3956 -1.1236 0.0000 -0.0000 -9.6153 15.2768 -5.6849 6.9314 0.0000 -0.0000 -7.2556 -8.0778 -0.9181 2.0812 -0.0000 -0.0000 -8.8979 -4.2360 -6.8225 -1.0957 0.0000 0.0000
 -4.8063 32.8477 -2.4551 11.4801 0.3780 -1.3899 -12.0422 4.3833 1.5773 -8.8650 -7.8308 9.2156 10.4101 21.7434 23.5021 -45.3079 16.7170 -28.0617 -51.0872 -0.0000 -12.4030 -2.5402 25.3331 5.9194 33.1476 -0.0000 26.2537 -21.1009 -11.6065 -37.2996 7.9768 -13.6681 36.7348 29.2162 -0.0000 33.5303 1.7019 -11.8927 8.2042 32.8623 0.0000 -24.3270 -5.7773 2.5393 1.3797 -1.1073 0.0000 0.0000 -9.6164 15.2597 -5.6768 6.9047 0.0000 -0.0000 -7.2337 -8.0990 -0.9380 2.0911 0.0000 0.0000 -8.9023 -4.2745 -6.8011 -1.0797 -0.0000 0.0000
 -4.7916 32.8478 -2.4596 11.4712 0.4124 -1.3917 -12.0758 4.4254 1.5392 -8.6861 -7.8744 9.2604 10.6777 21.5889 23.2237 -45.5385 17.5145 -28.3012 -53.5329 -0.0000 -12.8860 -3.1216 26.0469 7.0797 33.1476 -0.0000 26.2537 -20.8656 -11.8728 -37.0244 8.4692 -13.7544 37.5946 30.4192 -0.0000 33.7602 1.7068 -11.8673 8.2447 32.8623 0.0000 -24.3270 -5.7834 2.5056 1.3486 -1.0977 0.0000 -0.0000 -9.6392 15.2657 -5.6298 6.9683 0.0000 0.0000 -7.2385 -8.1341 -0.9696 2.1024 0.0000 -0.0000 -8.8916 -4.2748 -6.7825 -1.1212 0.0000 0.0000
 -4.7782 32.8470 -2.4645 11.4634 0.4280 -1.3967 -12.1021 4.4447 1.5234 -8.5522 -7.8588 9.2767 11.1098 21.7011 22.8010 -46.1380 18.1634 -28.6680 -55.9252 -0.0000 -12.8859 -3.5082 26.5943 7.7979 33.1476 -0.0000 26.2537 -20.6597 -12.1254 -36.7820 9.0578 -13.6899 38.5323 31.5762 -0.0000 34.0749 1.6317 -11.8776 7.8797 32.8623 0.0000 -24.3270 -5.7859 2.4958 1.3301 -1.0917 -0.0000 -0.0000 -9.6452 15.2369 -5.6243 6.9652 -0.0000 -0.0000 -7.2435 -8.1373 -0.9892 2.1104 0.0000 -0.0000 -8.8897 -4.2911 -6.7618 -1.0961 0.0000 0.0000
 -4.7645 32.8461 -2.4702 11.4469 0.4416 -1.3942 -12.1068 4.4761 1.4856 -8.4087 -7.9368 9.2688 11.3636 21.7046 22.5534 -46.4734 18.9183 -29.1258 -58.3825 -0.0000 -12.5498 -4.1199 27.2066 8.9531 33.1476 -0.0000 26.2537 -20.4916 -12.3928 -36.5122 9.5677 -13.5887 39.4436 32.6537 -0.0000 34.1642 1.6659 -11.8604 8.0542 32.8623 0.0000 -24.3270 -5.7792 2.4780 1.3027 -1.0882 -0.0000 0.0000 -9.6640 15.2414 -5.6087 6.9489 0.0000 0.0000 -7.2408 -8.1492 -1.0166 2.1111 0.0000 0.0000 -8.8865 -4.3033 -6.7494 -1.1407 0.0000 0.0000
 -4.7501 32.8447 -2.4765 11.4198 0.4448 -1.4048 -12.1108 4.5308 1.4688 -8.2399 -7.9556 9.3130 11.6939 21.7068 22.2968 -46.8109 19.6322 -29.6103 -60.8371 -0.0000 -12.0160 -4.8537 28.0720 10.2289 33.1476 -0.0000 26.2537 -20.2872 -12.6513 -36.2538 10.1947 -13.4801 40.4533 33.7514 -0.0000 34.4863 1.5522 -11.7903 7.5544 32.8623 0.0000 -24.3270 -5.7621 2.4657 1.2862 -1.0883 -0.0000 -0.0000 -9.6802 15.2360 -5.5578 6.9615 0.0000 0.0000 -7.2350 -8.1502 -1.0335 2.1305 0.0000 0.0000 -8.8881 -4.3078 -6.7831 -1.1096 0.0000 -0.0000
 -4.7369 32.8436 -2.4832 11.4090 0.4527 -1.4178 -12.1284 4.5568 1.4544 -8.1100 -7.9083 9.3255 11.8930 21.6336 22.1184 -46.9155 20.4316 -30.1116 -63.3659 -0.0000 -11.3512 -5.4348 28.9026 11.1362 33.1476 -0.0000 26.2537 -20.0987 -12.8724 -35.9370 10.7822 -13.3373 41.4153 34.7814 0.0000 34.7427 1.4694 -11.5998 7.2699 32.8623 0.0000 -24.3270 -5.7663 2.4576 1.2753 -1.0811 0.0000 0.0000 -9.6952 15.2293 -5.5582 6.9106 -0.0000 0.0000 -7.2436 -8.1368 -1.0497 2.1474 0.0000 0.0000 -8.8884 -4.3220 -6.7217 -1.1072 0.0000 -0.0000
 -4.7221 32.8420 -2.4887 11.3819 0.4678 -1.4150 -12.1278 4.5766 1.4335 -7.9796 -7.8842 9.3029 12.1355 21.5719 21.8855 -46.9641 21.0950 -30.6120 -65.8372 -0.0000 -10.6575 -6.4011 29.9104 12.6795 33.1476 -0.0000 26.2537 -19.8908 -13.2078 -35.6638 11.2950 -12.9774 42.4637 35.7105 0.0000 34.6888 1.3685 -11.3488 6.9219 32.8623 0.0000 -24.3270 -5.7521 2.4223 1.2473 -1.0686 -0.0000 -0.0000 -9.7215 15.2323 -5.5091 6.9555 -0.0000 -0.0000 -7.2302 -8.1562 -1.0810 2.1513 0.0000 0.0000 -8.8931 -4.3212 -6.6929 -1.0981 -0.0000 -0.0000
 -4.7071 32.8402 -2.4952 11.3528 0.4922 -1.4156 -12.1149 4.5759 1.4078 -7.8514 -7.8906 9.2960 12.3420 21.4956 21.6751 -46.9243 21.7391 -31.1332 -68.2972 -0.0000 -9.9027 -7.3719 30.8266 14.1696 33.1476 -0.0000 26.2537 -19.7084 -13.5055 -35.3814 11.7691 -12.7039 43.5779 36.6752 0.0000 34.5909 1.3861 -11.7481 6.7773 32.8623 0.0000 -24.3270 -5.7418 2.3755 1.2178 -1.0507 0.0000 0.0000 -9.7608 15.2556 -5.4926 7.0098 -0.0000 0.0000 -7.2233 -8.1880 -1.1096 2.1713 0.0000 -0.0000 -8.9126 -4.3270 -6.7245 -1.0415 0.0000 0.0000
 -4.6920 32.8391 -2.5007 11.3210 0.5074 -1.4129 -12.1015 4.5600 1.3890 -7.7287 -7.8621 9.2697 12.6234 21.5631 21.3707 -47.0095 22.2167 -31.7404 -70.6149 -0.0000 -8.5744 -8.2409 31.7353 15.3947 33.1476 -0.0000 26.2537 -19.4952 -13.7523 -35.1385 12.4049 -12.3807 44.8420 37.6587 0.0000 34.7149 1.2838 -11.7570 6.2766 32.8623 0.0000 -24.3270 -5.7264 2.3502 1.1882 -1.0306 -0.0000 -0.0000 -9.7942 15.2557 -5.4633 7.0366 -0.0000 -0.0000 -7.2013 -8.1883 -1.1396 2.1664 -0.0000 0.0000 -8.9008 -4.3444 -6.7589 -1.0847 -0.0000 -0.0000
 -4.6763 32.8375 -2.5076 11.3051 0.5227 -1.3987 -12.1219 4.5518 1.3630 -7.5867 -7.8110 9.1964 12.9139 21.5041 21.1132 -46.8637 22.7063 -32.3201 -72.9575 -0.0000 -7.4608 -9.4990 32.6042 17.2513 33.1476 -0.0000 26.2537 -19.2871 -13.9364 -34.8741 13.0082 -12.0866 46.1052 38.5956 0.0000 34.3044 1.2623 -11.9451 6.0770 32.8623 0.0000 -24.3270 -5.7325 2.3296 1.1455 -1.0062 -0.0000 -0.0000 -9.8124 15.2430 -5.4394 7.0917 -0.0000 0.0000 -7.2168 -8.2187 -1.1864 2.1973 -0.0000 0.0000 -8.9247 -4.3209 -6.7433 -1.0612 -0.0000 0.0000
 -4.6593 32.8363 -2.5150 11.2813 0.5351 -1.3795 -12.1254 4.5852 1.3420 -7.4491 -7.8006 9.1241 13.2730 21.5141 20.7602 -46.8727 23.0035 -32.9282 -75.1223 -0.0000 -6.1480 -10.7177 33.4464 18.9529 33.1476 -0.0000 26.2537 -19.1176 -14.1103 -34.6392 13.8663 -11.6248 47.4328 39.5467 0.0000 34.1586 1.0870 -11.9721 5.2264 32.8623 0.0000 -24.3270 -5.7374 2.3580 1.0982 -0.9765 -0.0000 -0.0000 -9.8117 15.1894 -5.4230 6.9921 -0.0000 0.0000 -7.2229 -8.2244 -1.2413 2.2208 -0.0000 0.0000 -8.9435 -4.3137 -6.7430 -1.0399 -0.0000 0.0000
 -4.6415 32.8353 -2.5225 11.2692 0.5443 -1.3562 -12.1519 4.6069 1.3246 -7.3005 -7.8517 8.9741 13.5084 21.5278 20.4654 -46.7017 23.1919 -33.6314 -77.1146 -0.0000 -4.9498 -11.9185 33.9753 20.6914 33.1476 -0.0000 26.2537 -18.9584 -14.1710 -34.4292 14.9893 -11.1110 48.8446 40.6150 0.0000 34.2143 0.9798 -11.9088 4.7377 32.8623 0.0000 -24.3270 -5.7464 2.3493 1.0434 -0.9569 0.0000 0.0000 -9.8132 15.1885 -5.4184 6.9554 0.0000 -0.0000 -7.2330 -8.2200 -1.2970 2.2260 -0.0000 0.0000 -8.9458 -4.3320 -6.7400 -1.0143 -0.0000 -0.0000
 -4.6251 32.8334 -2.5293 11.2466 0.5644 -1.3376 -12.1614 4.6352 1.3025 -7.1711 -7.8960 8.8458 13.7243 21.5412 20.1750 -46.5082 23.2901 -34.3296 -78.9686 -0.0000 -3.8537 -12.9466 34.5127 22.0842 33.1476 -0.0000 26.2537 -18.8135 -14.2929 -34.2090 16.0304 -10.3548 50.2017 41.4611 0.0000 34.1923 0.9442 -11.7646 4.6211 32.8623 0.0000 -24.3270 -5.7381 2.3248 0.9942 -0.9467 -0.0000 0.0000 -9.8323 15.1965 -5.4020 6.9746 0.0000 -0.0000 -7.2283 -8.2367 -1.3482 2.2293 0.0000 0.0000 -8.9577 -4.3285 -6.7452 -1.0396 -0.0000 -0.0000
 -4.6091 32.8314 -2.5349 11.2110 0.5780 -1.3142 -12.1795 4.7075 1.2585 -6.9652 -8.0038 8.7565 13.6770 21.3905 20.0854 -45.9933 23.4562 -35.0847 -80.7549 -0.0000 -2.8026 -13.6850 34.8579 23.0756 33.1476 -0.0000 26.2537 -18.6457 -14.5173 -33.9748 17.0662 -9.2934 51.4845 42.1481 0.0000 34.2558 0.8870 -11.4765 4.4494 32.8623 0.0000 -24.3270 -5.7171 2.3336 0.9423 -0.9360 0.0000 0.0000 -9.8444 15.1551 -5.3788 6.9832 0.0000 0.0000 -7.2099 -8.2449 -1.4014 2.2344 0.0000 0.0000 -8.9728 -4.3372 -6.7669 -1.0403 -0.0000 -0.0000
 -4.5938 32.8293 -2.5403 11.1728 0.5888 -1.3027 -12.1908 4.7555 1.2394 -6.7715 -8.1109 8.6589 13.7320 21.3112 19.9226 -45.5587 23.5078 -35.7947 -82.3471 -0.0000 -2.1441 -14.1430 35.0801 23.6745 33.1476 -0.0000 26.2537 -18.4547 -14.6931 -33.7719 18.0354 -8.1894 52.8285 42.7441 0.0000 34.5107 1.0254 -11.1205 5.3018 32.8623 0.0000 -24.3270 -5.6907 2.3181 0.9052 -0.9286 -0.0000 -0.0000 -9.8663 15.1657 -5.3751 7.0059 -0.0000 0.0000 -7.1877 -8.2570 -1.4400 2.2403 0.0000 0.0000 -8.9953 -4.3405 -6.7570 -0.9781 0.0000 0.0000
 -4.5774 32.8272 -2.5434 11.1254 0.6251 -1.2806 -12.1889 4.7784 1.1868 -6.6091 -8.2239 8.5501 13.8769 21.2885 19.7444 -45.2905 23.6141 -36.5312 -83.9688 -0.0000 -1.7297 -14.3268 35.3660 23.8094 33.1476 -0.0000 26.2537 -18.2436 -14.9611 -33.4842 18.7500 -6.9534 54.0447 43.0909 0.0000 34.6369 1.0500 -10.6356 5.6711 32.8623 0.0000 -24.3270 -5.6499 2.2852 0.8508 -0.9291 0.0000 -0.0000 -9.8804 15.1617 -5.3549 7.0418 0.0000 0.0000 -7.1459 -8.2962 -1.4940 2.2357 -0.0000 -0.0000 -9.0101 -4.3409 -6.7644 -0.9784 -0.0000 -0.0000
 -4.5629 32.8261 -2.5516 11.1028 0.6602 -1.2763 -12.2041 4.7904 1.1520 -6.4586 -8.2798 8.4735 13.8740 21.1431 19.6140 -44.7743 23.7025 -37.1569 -85.5043 -0.0000 -1.3220 -14.1538 35.5843 23.4306 33.1476 -0.0000 26.2537 -18.0290 -15.1954 -33.1578 19.2656 -5.8445 55.2780 43.2743 0.0000 34.8701 1.0963 -10.2462 6.1403 32.8623 0.0000 -24.3270 -5.6553 2.2283 0.8209 -0.9057 0.0000 0.0000 -9.8883 15.1644 -5.3478 7.0459 0.0000 -0.0000 -7.1438 -8.3032 -1.5337 2.2484 0.0000 0.0000 -9.0114 -4.3484 -6.7449 -1.0377 -0.0000 -0.0000
 -4.5484 32.8251 -2.5589 11.0873 0.7263 -1.2758 -12.2431 4.7263 1.1247 -6.2916 -8.3551 8.3495 14.0113 21.0405 19.4276 -44.3562 23.7665 -37.7511 -86.9470 -0.0000 -0.9335 -14.0688 35.8322 23.1747 33.1476 -0.0000 26.2537 -17.7723 -15.4966 -32.8332 19.5470 -4.5909 56.4968 43.2467 0.0000 34.9437 1.1269 -9.8683 6.5474 32.8623 0.0000 -24.3270 -5.6725 2.1479 0.7888 -0.8642 -0.0000 0.0000 -9.9241 15.1698 -5.3003 7.0318 -0.0000 0.0000 -7.1428 -8.3490 -1.5669 2.2621 0.0000 0.0000 -9.0268 -4.3764 -6.7653 -1.0014 -0.0000 -0.0000
 -4.5282 32.8237 -2.5646 11.0523 0.7745 -1.2339 -12.2530 4.6605 1.0470 -6.1163 -8.4033 8.2783 14.2383 21.0582 19.2127 -44.0457 23.7433 -38.4387 -88.2911 -0.0000 -0.5031 -14.1049 35.9545 23.1689 33.1476 -0.0000 26.2537 -17.5477 -15.7727 -32.4997 19.7559 -3.2858 57.7553 43.0155 0.0000 35.0749 1.0986 -9.6333 6.5371 32.8623 0.0000 -24.3270 -5.6603 2.1037 0.7017 -0.8257 0.0000 0.0000 -9.9249 15.1866 -5.2989 6.9800 0.0000 -0.0000 -7.1298 -8.3706 -1.6465 2.2736 0.0000 -0.0000 -9.0558 -4.4174 -6.8326 -0.9859 0.0000 0.0000
 -4.5111 32.8226 -2.5707 11.0141 0.8137 -1.2218 -12.2653 4.6007 1.0120 -5.9386 -8.4180 8.1723 14.3681 20.9363 19.0213 -43.5887 23.7516 -38.9915 -89.5921 -0.0000 -0.1613 -14.0104 36.1759 22.9151 33.1476 -0.0000 26.2537 -17.4423 -15.8710 -32.1757 20.0750 -2.1849 59.0689 42.6769 0.0000 35.3088 0.9922 -9.2791 6.1308 32.8623 0.0000 -24.3270 -5.6502 2.0425 0.6588 -0.7901 0.0000 0.0000 -9.9451 15.1918 -5.2661 6.9477 -0.0000 0.0000 -7.1353 -8.4047 -1.6924 2.3400 -0.0000 -0.0000 -9.0947 -4.4273 -6.8922 -0.9753 0.0000 -0.0000
 -4.4954 32.8203 -2.5755 10.9719 0.8597 -1.2110 -12.2832 4.5445 0.9835 -5.7486 -8.4856 8.0206 14.7303 20.9108 18.7458 -43.3773 23.7060 -39.5719 -90.8388 -0.0000 0.0359 -13.8591 36.2947 22.6262 33.1476 -0.0000 26.2537 -17.4126 -15.8433 -31.8749 20.4794 -1.2123 60.4137 42.3325 0.0000 35.1419 0.9046 -9.1340 5.6801 32.8623 0.0000 -24.3270 -5.6330 1.9690 0.6173 -0.7514 -0.0000 -0.0000 -9.9789 15.1995 -5.2530 6.9616 0.0000 0.0000 -7.1061 -8.4111 -1.7373 2.3520 -0.0000 0.0000 -9.1122 -4.4655 -6.8536 -0.9411 -0.0000 0.0000
